<?xml version="1.0" encoding="UTF-8" standalone="no"?>
<!-- Created with Inkscape (http://www.inkscape.org/) -->

<svg
   width="448"
   height="76"
   viewBox="0 0 118.53333 20.108334"
   version="1.1"
   id="svg8"
   inkscape:version="1.3.2 (091e20ef0f, 2023-11-25)"
   sodipodi:docname="logo_aec.svg"
   inkscape:export-filename="/home/paolo/Scaricati/A&amp;C_logo_16x16.png"
   inkscape:export-xdpi="20.210518"
   inkscape:export-ydpi="20.210518"
   xmlns:inkscape="http://www.inkscape.org/namespaces/inkscape"
   xmlns:sodipodi="http://sodipodi.sourceforge.net/DTD/sodipodi-0.dtd"
   xmlns="http://www.w3.org/2000/svg"
   xmlns:svg="http://www.w3.org/2000/svg"
   xmlns:rdf="http://www.w3.org/1999/02/22-rdf-syntax-ns#"
   xmlns:cc="http://creativecommons.org/ns#"
   xmlns:dc="http://purl.org/dc/elements/1.1/">
  <defs
     id="defs2" />
  <sodipodi:namedview
     id="base"
     pagecolor="#0459b3"
     bordercolor="#666666"
     borderopacity="1.0"
     inkscape:pageopacity="0.0"
     inkscape:pageshadow="2"
     inkscape:zoom="1.979899"
     inkscape:cx="310.11683"
     inkscape:cy="26.011428"
     inkscape:document-units="px"
     inkscape:current-layer="layer1"
     showgrid="false"
     units="px"
     inkscape:window-width="1870"
     inkscape:window-height="1043"
     inkscape:window-x="50"
     inkscape:window-y="0"
     inkscape:window-maximized="1"
     inkscape:snap-text-baseline="false"
     inkscape:showpageshadow="2"
     inkscape:pagecheckerboard="0"
     inkscape:deskcolor="#d1d1d1" />
  <metadata
     id="metadata5">
    <rdf:RDF>
      <cc:Work
         rdf:about="">
        <dc:format>image/svg+xml</dc:format>
        <dc:type
           rdf:resource="http://purl.org/dc/dcmitype/StillImage" />
      </cc:Work>
    </rdf:RDF>
  </metadata>
  <g
     inkscape:label="A&amp;C"
     inkscape:groupmode="layer"
     id="layer1"
     transform="translate(0,-276.89165)"
     style="display:inline">
    <flowRoot
       xml:space="preserve"
       id="flowRoot10"
       style="font-style:normal;font-weight:normal;font-size:40px;line-height:1.25;font-family:sans-serif;letter-spacing:0px;word-spacing:0px;fill:#000000;fill-opacity:1;stroke:none"
       transform="scale(0.26458333)"><flowRegion
         id="flowRegion12"><rect
           id="rect14"
           width="562.85712"
           height="460"
           x="134.28572"
           y="336.80539" /></flowRegion><flowPara
         id="flowPara16" /></flowRoot>
    <path
       d="m 44.89108,279.55888 h 1.792288 v 1.59537 h -0.93689 z m -0.728133,7.85091 h 0.774435 v -4.5325 L 44.11638,282.4842 v -0.38185 h 2.52095 v 5.30744 h 0.751152 v 0.47405 h -3.225535 z"
       fill="#ffffff"
       id="path1"
       style="stroke-width:0.264583" />
    <path
       d="m 96.522401,279.55888 h 1.271852 v 1.27205 h -0.84455 z m -0.994304,2.84433 v -0.30086 h 2.011627 l -1.653381,5.20341 0.821002,0.27723 v 0.30085 h -2.023269 l 1.641475,-5.1567 z"
       fill="#ffffff"
       id="path2"
       style="stroke-width:0.264583" />
    <mask
       id="mask0_66_4736"
       style="mask-type:luminance"
       maskUnits="userSpaceOnUse"
       x="0"
       y="-1"
       width="421"
       height="64">
      <path
         d="M0 -0.000389099H421V63H0V-0.000389099Z"
         fill="white"
         id="path3" />
    </mask>
    <g
       mask="url(#mask0_66_4736)"
       id="g20"
       transform="matrix(0.26458333,0,0,0.26458333,6.6553496,278.03592)">
      <path
         d="m 48.7389,18.6803 c -0.9629,0 -1.7962,0.306 -2.4977,0.9204 -0.7015,0.6121 -1.2846,1.2421 -1.7537,1.8833 v 11.9611 c 0.4111,0.7306 0.9428,1.3226 1.5996,1.7761 0.659,0.4535 1.3963,0.6792 2.2139,0.6792 0.8177,0 1.5259,-0.248 2.1246,-0.7462 0.5987,-0.496 1.0947,-1.1595 1.4901,-1.9928 0.3932,-0.8333 0.6859,-1.8029 0.8758,-2.9132 0.1899,-1.1103 0.2859,-2.2944 0.2859,-3.5499 0,-2.453 -0.3731,-4.4033 -1.117,-5.8488 -0.7462,-1.4454 -1.8185,-2.1692 -3.2215,-2.1692 z M 38.0467,18.3295 34.8922,16.8394 V 15.394 h 8.9832 l -0.7462,4.6892 h 0.3507 c 0.3798,-0.6434 0.84,-1.2778 1.3807,-1.9078 0.5406,-0.6256 1.155,-1.1886 1.8408,-1.6868 0.6859,-0.4959 1.4522,-0.9047 2.3011,-1.2264 0.8467,-0.3195 1.7359,-0.4804 2.6719,-0.4804 2.3369,0 4.2649,0.9495 5.784,2.8462 1.5192,1.899 2.2788,4.4123 2.2788,7.5377 0,1.899 -0.2927,3.6281 -0.878,5.192 -0.5831,1.5616 -1.3874,2.8908 -2.4083,3.9878 -1.0232,1.0946 -2.2296,1.9414 -3.6147,2.5401 -1.3896,0.5987 -2.8708,0.8981 -4.4481,0.8981 -0.8176,0 -1.5348,-0.0805 -2.1469,-0.2413 -0.6143,-0.1609 -1.1974,-0.3418 -1.7537,-0.5473 v 8.2369 h 4.1196 v 1.7962 H 35.024 V 45.232 h 3.0227 z"
         fill="#ffffff"
         id="path4" />
      <path
         d="m 73.9081,18.6803 c -0.9629,0 -1.7962,0.306 -2.4977,0.9204 -0.7015,0.6121 -1.2846,1.2421 -1.7537,1.8833 v 11.9611 c 0.411,0.7306 0.9427,1.3226 1.5996,1.7761 0.659,0.4535 1.3962,0.6792 2.2139,0.6792 0.8177,0 1.5259,-0.248 2.1246,-0.7462 0.5987,-0.496 1.0947,-1.1595 1.4901,-1.9928 0.3932,-0.8333 0.6859,-1.8029 0.8758,-2.9132 0.1899,-1.1103 0.2859,-2.2944 0.2859,-3.5499 0,-2.453 -0.3731,-4.4033 -1.117,-5.8488 -0.7462,-1.4454 -1.8185,-2.1692 -3.2215,-2.1692 z M 63.2159,18.3295 60.0614,16.8394 V 15.394 h 8.9831 l -0.7461,4.6892 h 0.3507 c 0.3798,-0.6434 0.84,-1.2778 1.3807,-1.9078 0.5406,-0.6256 1.155,-1.1886 1.8408,-1.6868 0.6859,-0.4959 1.4522,-0.9047 2.3011,-1.2264 0.8467,-0.3195 1.7359,-0.4804 2.6719,-0.4804 2.3369,0 4.2648,0.9495 5.784,2.8462 1.5192,1.899 2.2787,4.4123 2.2787,7.5377 0,1.899 -0.2926,3.6281 -0.8779,5.192 -0.5831,1.5616 -1.3874,2.8908 -2.4084,3.9878 -1.0232,1.0946 -2.2295,1.9414 -3.6147,2.5401 -1.3895,0.5987 -2.8707,0.8981 -4.448,0.8981 -0.8176,0 -1.5348,-0.0805 -2.1469,-0.2413 -0.6144,-0.1609 -1.1974,-0.3418 -1.7537,-0.5473 v 8.2369 h 4.1196 v 1.7962 H 60.1932 V 45.232 h 3.0227 z"
         fill="#ffffff"
         id="path5" />
      <path
         d="m 95.2635,34.0162 c 0.9048,0 1.6934,-0.2927 2.3658,-0.8757 0.6725,-0.5854 1.1975,-1.2265 1.5773,-1.928 v -5.4333 l -2.4083,0.9205 c -1.0232,0.3798 -1.9504,0.9405 -2.7837,1.6867 -0.8333,0.7439 -1.2488,1.6577 -1.2488,2.7389 0,0.9048 0.2547,1.613 0.7663,2.1246 0.5116,0.5116 1.088,0.7663 1.7314,0.7663 z m -2.9356,3.856 c -1.6644,0 -3.0517,-0.4893 -4.162,-1.4678 -1.1104,-0.9785 -1.6666,-2.2854 -1.6666,-3.9208 0,-1.1103 0.2569,-2.0665 0.7685,-2.8707 0.5093,-0.8043 1.1461,-1.4745 1.9056,-2.0151 0.7596,-0.5407 1.584,-0.9785 2.4754,-1.3159 0.8914,-0.3351 1.7157,-0.6054 2.4753,-0.8087 l 5.0825,-1.4901 v -2.4553 c 0,-1.4878 -0.277,-2.6429 -0.8311,-3.4605 -0.5563,-0.8177 -1.403,-1.2265 -2.5423,-1.2265 -0.467,0 -0.8981,0.0447 -1.2913,0.1318 -0.3955,0.0871 -0.7395,0.2323 -1.0299,0.4379 v 5.4332 h -6.6173 c 0.0871,-1.0813 0.4088,-2.1112 0.9651,-3.0897 0.5541,-0.9785 1.2913,-1.8319 2.2117,-2.5625 0.9205,-0.7305 2.0084,-1.3158 3.264,-1.7537 1.2555,-0.4379 2.6295,-0.6568 4.1196,-0.6568 2.4239,0 4.3809,0.592 5.8709,1.7738 1.49,1.1841 2.234,2.9736 2.234,5.3685 v 12.6179 l 2.98,1.3159 v 1.4454 h -8.7191 l 0.6121,-4.3385 h -0.393 c -0.7307,1.3158 -1.7471,2.4619 -3.0451,3.4404 -1.3003,0.9785 -2.8574,1.4678 -4.667,1.4678 z"
         fill="#ffffff"
         id="path6" />
      <path
         d="m 110.123,37.3019 v -1.7961 h 2.935 V 8.69038 L 109.772,7.20027 V 5.75483 h 9.727 V 35.5058 h 2.804 v 1.7961 z"
         fill="#ffffff"
         id="path7" />
      <path
         d="m 140.124,31.2529 c -0.498,1.8699 -1.454,3.4315 -2.87,4.6893 -1.417,1.2555 -3.088,1.8833 -5.016,1.8833 -1.841,0 -3.338,-0.5987 -4.49,-1.7962 -1.155,-1.1974 -1.732,-2.7456 -1.732,-4.6446 V 17.7145 h -3.55 v -2.3234 h 3.725 l 4.776,-6.65972 h 1.49 v 6.65972 h 7.142 v 2.3234 h -7.142 v 12.6627 c 0,1.05 0.219,1.8989 0.657,2.5401 0.438,0.6434 1.095,0.9651 1.97,0.9651 0.731,0 1.381,-0.2569 1.951,-0.7663 0.569,-0.5116 1.001,-1.1327 1.293,-1.8632 z"
         fill="#ffffff"
         id="path8" />
      <path
         d="m 214.704,36.4253 c 1.168,0 2.299,-0.5473 3.396,-1.6442 1.094,-1.0947 2.066,-2.4597 2.913,-4.0951 0.847,-1.6353 1.519,-3.3957 2.015,-5.279 0.496,-1.8856 0.746,-3.617 0.746,-5.1942 0,-1.2265 -0.197,-2.1894 -0.592,-2.8909 -0.395,-0.7015 -1.088,-1.0522 -2.082,-1.0522 -1.168,0 -2.299,0.5473 -3.396,1.6442 -1.095,1.0947 -2.066,2.4597 -2.913,4.0973 -0.847,1.6353 -1.519,3.3958 -2.015,5.2791 -0.498,1.8833 -0.746,3.6147 -0.746,5.1919 0,1.2265 0.198,2.1916 0.592,2.8909 0.395,0.7015 1.088,1.0522 2.082,1.0522 z m -0.219,1.403 c -2.105,0 -3.689,-0.6211 -4.754,-1.8632 -1.066,-1.2421 -1.6,-2.9288 -1.6,-5.0601 0,-1.9571 0.351,-3.9007 1.052,-5.8287 0.702,-1.928 1.642,-3.6437 2.827,-5.1473 1.181,-1.5035 2.578,-2.7233 4.184,-3.6593 1.606,-0.9339 3.313,-1.4008 5.127,-1.4008 2.102,0 3.686,0.6211 4.752,1.861 1.068,1.2421 1.6,2.9288 1.6,5.0601 0,1.9593 -0.351,3.9007 -1.05,5.8287 -0.702,1.928 -1.645,3.6437 -2.829,5.1472 -1.182,1.5058 -2.578,2.7256 -4.184,3.6594 -1.606,0.9339 -3.316,1.403 -5.125,1.403 z"
         fill="#ffffff"
         id="path9" />
      <path
         d="m 239.106,37.3018 5.784,-16.2126 c 0.116,-0.3775 0.226,-0.7372 0.329,-1.0723 0.102,-0.3351 0.154,-0.6636 0.154,-0.9853 0,-0.4669 -0.103,-0.8109 -0.309,-1.0299 -0.203,-0.2189 -0.495,-0.3284 -0.875,-0.3284 -0.586,0 -1.256,0.2324 -2.015,0.6993 -0.76,0.4692 -1.542,1.0902 -2.344,1.8632 -0.804,0.7752 -1.608,1.6577 -2.41,2.6518 -0.805,0.9919 -1.542,1.9995 -2.212,3.0227 -1.023,1.5772 -1.879,3.1902 -2.565,4.8412 -0.686,1.651 -1.452,3.7465 -2.299,6.2866 l -0.089,0.2637 h -3.856 l 6.224,-19.5413 -3.025,-1.2265 v -1.1394 h 7.625 l -3.55,9.7695 h 0.264 c 0.467,-0.7573 1.152,-1.7291 2.059,-2.9132 0.905,-1.1818 1.928,-2.3212 3.068,-3.4181 1.139,-1.0947 2.35,-2.0441 3.635,-2.8462 1.284,-0.8042 2.542,-1.2064 3.768,-1.2064 0.992,0 1.739,0.2793 2.235,0.8333 0.495,0.5541 0.746,1.3003 0.746,2.2341 0,0.6434 -0.083,1.2488 -0.242,1.8185 -0.16,0.5697 -0.299,1.0456 -0.417,1.4231 l -4.993,14.0656 2.978,1.0076 v 1.1394 z"
         fill="#ffffff"
         id="path10" />
      <path
         d="m 251.737,15.3954 h 4.338 l 4.294,-5.65221 h 1.359 l -1.841,5.65221 h 6.441 v 1.9279 h -7.053 l -4.821,15.1157 c -0.117,0.3217 -0.219,0.6568 -0.307,1.0075 -0.087,0.3508 -0.131,0.6591 -0.131,0.9205 0,0.2345 0.058,0.4311 0.174,0.592 0.116,0.1608 0.308,0.2413 0.57,0.2413 0.672,0 1.599,-0.4759 2.783,-1.4254 1.182,-0.9472 2.417,-2.3279 3.702,-4.1397 h 1.49 c -1.957,3.1255 -3.74,5.2791 -5.346,6.4632 -1.606,1.1818 -3.083,1.7738 -4.426,1.7738 -0.992,0 -1.709,-0.2547 -2.147,-0.7663 -0.437,-0.5116 -0.656,-1.1907 -0.656,-2.0374 0,-0.467 0.051,-0.9629 0.154,-1.4902 0.1,-0.525 0.255,-1.079 0.46,-1.6643 l 4.687,-14.5907 h -3.724 z"
         fill="#ffffff"
         id="path11" />
      <path
         d="m 268.782,37.3019 h -3.856 l 6.221,-19.5412 -3.022,-1.2265 v -1.1394 h 7.535 l -3.898,11.3043 h 0.261 c 0.731,-1.2265 1.535,-2.4753 2.411,-3.7465 0.875,-1.2712 1.803,-2.453 2.781,-3.5499 0.979,-1.0947 2.008,-2.0509 3.09,-2.8685 1.081,-0.8177 2.176,-1.403 3.286,-1.7538 v 5.6097 h -5.257 c -0.907,1.021 -1.811,2.1604 -2.716,3.4159 -0.907,1.2578 -1.754,2.558 -2.543,3.9007 -0.788,1.3426 -1.519,2.7099 -2.191,4.0972 -0.67,1.3874 -1.211,2.7233 -1.62,4.0079 z"
         fill="#ffffff"
         id="path12" />
      <path
         d="m 285.351,35.2413 c 0.73,0 1.68,-0.5831 2.848,-1.7538 1.169,-1.1661 2.344,-2.6205 3.528,-4.3586 1.182,-1.7381 2.305,-3.6281 3.373,-5.6745 1.066,-2.0442 1.877,-3.9431 2.431,-5.6946 -0.232,-0.3798 -0.554,-0.7015 -0.963,-0.9651 -0.409,-0.2636 -0.92,-0.3932 -1.535,-0.3932 -1.168,0 -2.415,0.5116 -3.744,1.5325 -1.331,1.0232 -2.542,2.3235 -3.637,3.9007 -1.097,1.5772 -2.008,3.3287 -2.739,5.2567 -0.731,1.928 -1.095,3.7823 -1.095,5.5651 0,0.7596 0.11,1.3806 0.329,1.8609 0.219,0.4826 0.621,0.7239 1.204,0.7239 z m -1.928,2.6719 c -1.227,0 -2.154,-0.4379 -2.781,-1.3136 -0.631,-0.8758 -0.943,-1.9861 -0.943,-3.331 0,-2.1894 0.54,-4.3877 1.622,-6.5927 1.079,-2.205 2.424,-4.1844 4.03,-5.9381 1.606,-1.7515 3.367,-3.1835 5.279,-4.2939 1.915,-1.1103 3.704,-1.6643 5.368,-1.6643 0.642,0 1.272,0.058 1.884,0.1742 0.614,0.1184 1.213,0.2636 1.796,0.4401 h 2.366 l -6.265,19.6731 3.11,1.0947 v 1.1394 h -7.667 l 3.154,-9.115 h -0.261 c -0.411,0.7015 -1.001,1.6085 -1.776,2.7166 -0.773,1.1104 -1.642,2.1782 -2.607,3.1992 -0.963,1.0232 -1.993,1.9124 -3.088,2.6719 -1.097,0.7596 -2.169,1.1394 -3.221,1.1394 z"
         fill="#ffffff"
         id="path13" />
      <path
         d="m 305.682,15.3954 h 4.338 l 4.294,-5.65221 h 1.358 l -1.84,5.65221 h 6.44 v 1.9279 h -7.053 l -4.821,15.1157 c -0.116,0.3217 -0.219,0.6568 -0.306,1.0075 -0.087,0.3508 -0.132,0.6591 -0.132,0.9205 0,0.2345 0.059,0.4311 0.175,0.592 0.116,0.1608 0.308,0.2413 0.569,0.2413 0.673,0 1.6,-0.4759 2.784,-1.4254 1.182,-0.9472 2.417,-2.3279 3.702,-4.1397 h 1.49 c -1.957,3.1255 -3.74,5.2791 -5.346,6.4632 -1.606,1.1818 -3.083,1.7738 -4.426,1.7738 -0.992,0 -1.709,-0.2547 -2.147,-0.7663 -0.438,-0.5116 -0.657,-1.1907 -0.657,-2.0374 0,-0.467 0.052,-0.9629 0.155,-1.4902 0.1,-0.525 0.254,-1.079 0.46,-1.6643 l 4.687,-14.5907 h -3.724 z"
         fill="#ffffff"
         id="path14" />
      <path
         d="m 319.983,15.3954 h 4.339 l 4.294,-5.65221 h 1.358 l -1.841,5.65221 h 6.441 v 1.9279 h -7.053 L 322.7,32.439 c -0.116,0.3217 -0.219,0.6568 -0.306,1.0075 -0.087,0.3508 -0.132,0.6591 -0.132,0.9205 0,0.2345 0.058,0.4311 0.174,0.592 0.117,0.1608 0.309,0.2413 0.57,0.2413 0.673,0 1.6,-0.4759 2.784,-1.4254 1.182,-0.9472 2.417,-2.3279 3.702,-4.1397 h 1.49 c -1.957,3.1255 -3.74,5.2791 -5.346,6.4632 -1.607,1.1818 -3.083,1.7738 -4.426,1.7738 -0.992,0 -1.709,-0.2547 -2.147,-0.7663 -0.438,-0.5116 -0.657,-1.1907 -0.657,-2.0374 0,-0.467 0.052,-0.9629 0.154,-1.4902 0.101,-0.525 0.255,-1.079 0.461,-1.6643 l 4.687,-14.5907 h -3.725 z"
         fill="#ffffff"
         id="path15" />
      <path
         d="M 32.1397,35.5018 20.3104,5.61905 H 16.6733 L 5.58793,35.5018 H 2.47589 V 37.298 H 12.203 V 35.5018 H 7.90912 l 2.49548,-6.8898 0.9695,-2.7055 0.1184,-0.3329 0.0224,-0.0647 h 0.0022 l 4.6737,-12.8347 4.9953,13.2323 h -5.7192 l -0.7238,1.9705 h 7.187 l 2.8931,7.6248 h -4.5575 v 1.7962 h 14.986 v -1.7962 z"
         fill="#ffffff"
         id="path16" />
      <path
         d="m 163.816,34.4884 c 1.434,0 2.837,-0.3217 4.216,-0.9651 1.373,-0.6434 2.779,-1.5817 4.213,-2.8105 l -6.805,-8.8692 c -2.138,1.231 -3.724,2.5625 -4.763,3.9968 -1.039,1.4342 -1.559,2.8685 -1.559,4.3028 0,1.3158 0.388,2.3703 1.164,3.1589 0.775,0.7909 1.954,1.1863 3.534,1.1863 z m -1.843,3.4248 c -1.993,0 -3.624,-0.5652 -4.897,-1.6912 -1.271,-1.1259 -1.908,-2.5959 -1.908,-4.4122 0,-1.1684 0.255,-2.31 0.768,-3.4226 0.512,-1.1126 1.198,-2.1514 2.062,-3.1188 0.863,-0.9651 1.859,-1.843 2.987,-2.6339 1.126,-0.7909 2.304,-1.4477 3.532,-1.9749 -0.556,-0.7305 -1.112,-1.5951 -1.666,-2.5915 -0.557,-0.9942 -0.836,-2.2095 -0.836,-3.6438 0,-1.3158 0.286,-2.5379 0.856,-3.6638 0.572,-1.12822 1.331,-2.10003 2.283,-2.91993 0.952,-0.8199 2.064,-1.4566 3.338,-1.91012 1.273,-0.45351 2.596,-0.68138 3.972,-0.68138 2.341,0 4.084,0.6233 5.225,1.86543 1.142,1.24437 1.785,2.84842 1.931,4.8077 h -5.311 V 6.87322 c -0.263,-0.08712 -0.572,-0.15861 -0.922,-0.21893 -0.351,-0.05809 -0.733,-0.08713 -1.142,-0.08713 -0.936,0 -1.794,0.18319 -2.569,0.54734 -0.775,0.36639 -1.434,0.85788 -1.975,1.47225 -0.543,0.61436 -0.965,1.32479 -1.274,2.12905 -0.306,0.8043 -0.46,1.6465 -0.46,2.5245 0,1.1416 0.226,2.1223 0.682,2.94 0.451,0.8199 0.942,1.5661 1.47,2.2408 l 7.374,9.6578 7.201,-6.9368 h -4.522 v -1.4052 h 7.024 v 1.1416 l -8.867,8.2973 5.223,6.8049 v 1.3181 h -4.258 l -4.126,-5.3572 c -1.788,1.5817 -3.573,2.9713 -5.358,4.171 -1.785,1.1996 -3.731,1.8006 -5.837,1.8006 z"
         fill="#ffffff"
         id="path17" />
      <path
         d="m 199.798,35.8278 c -0.849,0.2636 -1.637,0.4379 -2.368,0.5272 -0.733,0.0872 -1.434,0.1318 -2.107,0.1318 -2.602,0 -4.582,-0.936 -5.942,-2.8082 -1.361,-1.8721 -2.04,-4.2826 -2.04,-7.2383 0,-0.9428 0.067,-1.89 0.192,-2.844 l -4.604,4.4503 c 0.362,2.6987 1.385,4.906 3.074,6.6195 2.149,2.1782 5.109,3.2662 8.883,3.2662 1.695,0 3.384,-0.2033 5.066,-0.6121 1.68,-0.4111 3.253,-1.0232 4.714,-1.8431 l 1.93,-7.5891 h -1.315 z"
         fill="#ffffff"
         id="path18" />
      <path
         d="m 207.453,5.61022 c -1.535,-0.3217 -3.063,-0.48255 -4.585,-0.48255 -2.69,0 -5.256,0.54734 -7.698,1.64426 -2.442,1.09693 -4.576,2.57364 -6.403,4.43017 -1.743,1.7716 -3.143,3.8448 -4.207,6.2129 h 4.667 c 0.664,-1.5817 1.472,-3.045 2.435,-4.3922 1.359,-1.9012 2.974,-3.44936 4.846,-4.64905 1.872,-1.19969 3.905,-1.79841 6.097,-1.79841 0.907,0 1.718,0.04468 2.435,0.13181 0.717,0.08713 1.409,0.23457 2.084,0.43787 l 1.052,8.07168 h 1.316 l 2.018,-8.11413 c -1.171,-0.67245 -2.523,-1.17064 -4.057,-1.49235 z"
         fill="#ffffff"
         id="path19" />
    </g>
    <text
       xml:space="preserve"
       style="font-style:normal;font-variant:normal;font-weight:normal;font-stretch:normal;font-size:3.88056px;font-family:'Open Sans';-inkscape-font-specification:'Open Sans';text-align:end;word-spacing:0px;text-anchor:end;fill:#ffffff;stroke-width:0.264583"
       x="96.345612"
       y="293.70016"
       id="text1"><tspan
         sodipodi:role="line"
         id="tspan1"
         style="font-style:italic;font-variant:normal;font-weight:normal;font-stretch:normal;font-size:3.88056px;font-family:'Open Sans';-inkscape-font-specification:'Open Sans Italic';text-align:end;word-spacing:0px;text-anchor:end;stroke-width:0.264583"
         x="96.345612"
         y="293.70016">M-eForms</tspan></text>
  </g>
</svg>
